# xmcd CD database file
#
# Track frame offsets:
#	150
#	63868
#	102324
#	140320
#	182722
#
# Disc length: 2529 seconds
#
# Revision: 0
# Processed by: cddbd v1.5.1PL2 Copyright (c) Steve Scherf et al.
# Submitted via: CDex 1.51
#
DISCID=3d09df05
DTITLE=Art Blakey and THE JAZZ MESSENGERS - Meet You At The Jazz Corner Of The World Volume 2
DYEAR=1960
DGENRE=Jazz
TTITLE0=Announcement By Pee Wee Marquette and Art Blakey/High Modes
TTITLE1=Night Watch
TTITLE2=The Things I Love
TTITLE3=The Summit
TTITLE4=The Theme
EXTD=YEAR: 1960
EXTT0=
EXTT1=
EXTT2=
EXTT3=
EXTT4=
PLAYORDER=
